<svg width="16" height="16" viewBox="0 0 16 16" fill="none" xmlns="http://www.w3.org/2000/svg">
<path d="M8 4.5V5.5" stroke="black" stroke-linecap="round" stroke-linejoin="round"/>
<path d="M8 10.5V11.5" stroke="black" stroke-linecap="round" stroke-linejoin="round"/>
<path d="M8 14C11.3137 14 14 11.3137 14 8C14 4.68629 11.3137 2 8 2C4.68629 2 2 4.68629 2 8C2 11.3137 4.68629 14 8 14Z" stroke="black" stroke-linecap="round" stroke-linejoin="round"/>
<path d="M6.5 10.5H8.75C9.08152 10.5 9.39946 10.3683 9.63388 10.1339C9.8683 9.89946 10 9.58152 10 9.25C10 8.91848 9.8683 8.60054 9.63388 8.36612C9.39946 8.1317 9.08152 8 8.75 8H7.25C6.91848 8 6.60054 7.8683 6.36612 7.63388C6.1317 7.39946 6 7.08152 6 6.75C6 6.41848 6.1317 6.10054 6.36612 5.86612C6.60054 5.6317 6.91848 5.5 7.25 5.5H9.5" stroke="black" stroke-linecap="round" stroke-linejoin="round"/>
</svg>
